<svg width="58" height="28" viewBox="0 0 58 28" fill="none" xmlns="http://www.w3.org/2000/svg">
<path d="M19.9 11.9C18.2 9.7 15.4 8.2 12.2 8.2C9 8.2 6.2 9.6 4.5 11.9C4.5 11.9 11.4 5.3 19.9 11.9Z" fill="url(#paint0_linear_1630_39958)"/>
<path d="M20.3 21.9C21.3 20.2 21.5 19.7 21.3 19.6C21 19.4 19.2 22.3 17 22.2C15.8 22.2 14.8 21.3 14.1 20.4C13.9 20.2 13.5 19.9 12.9 19.8C12.5 19.7 12.2 19.7 12.1 19.7C11.4 19.7 10.8 19.9 10.3 20.4C8.30001 22.1 6.60001 22.8 5.30001 22.3C4.10001 21.8 3.50001 20.5 3.40001 20.5C3.30001 20.6 3.80001 21.7 4.80001 22.8C6.50001 24.6 8.80001 25.1 9.70001 25.4C10.1 25.5 11 25.7 12.2 25.7C13.1 25.7 15 25.7 17 24.7C18.6 23.8 19.7 22.7 20.3 21.9Z" fill="url(#paint1_linear_1630_39958)"/>
<path d="M2.60002 17C2.70002 16.1 2.80002 15.2 3.20002 14.3L1.80002 14.7C1.80002 14.7 2.31862e-05 17.4 1.50002 20.4L3.60002 21.4C2.90002 20.1 2.60002 18.6 2.60002 17Z" fill="url(#paint2_linear_1630_39958)"/>
<path d="M22.5 14.7L21.2 14.3C21.5 15.1 21.7 16 21.7 17C21.8 18.6 21.4 20.1 20.6 21.4L22.7 20.4C24.2 17.4 22.5 14.7 22.5 14.7Z" fill="url(#paint3_linear_1630_39958)"/>
<path d="M20.8 18.7C20.7 18.7 20.7 19.1 20.5 19.6C20.4 19.8 20.2 20 20.1 20.1C20 20.3 19.9 20.5 19.8 20.7C18.5 20.5 17.1 20.4 15.5 20.4C15 20.4 14.6 20.4 14.2 20.5C14 20.3 13.6 20 13 19.8C12.6 19.7 12.3 19.7 12.2 19.7C11.5 19.7 10.9 19.9 10.4 20.4C10.3 20.2 6.30004 22.2 4.00004 21C3.90004 21 3.90004 20.9 3.80004 20.9C2.60004 20.1 2.70004 18.2 2.80004 17C2.80004 16.7 2.90004 15.9 3.10004 15.1C3.20004 14.8 3.30004 14.6 3.30004 14.3C3.60004 13.5 4.10004 12.7 4.60004 12C4.60004 12 11.4 5.29999 19.9 12C20.5 12.7 20.9 13.5 21.2 14.3C21.5 15.1 21.7 16 21.7 17C21.8 18.6 21.4 20.2 21.2 20.2C21 20.1 21 18.7 20.8 18.7Z" fill="url(#paint4_radial_1630_39958)"/>
<path d="M9.30003 1.9C9.90003 2.2 9.70003 3.4 8.90003 4.5C8.20003 5.4 7.40003 5.9 6.70003 5.9C6.70003 5.9 5.20003 8.9 7.00003 11.7C7.10003 11.7 7.10003 11.6 7.20003 11.6C7.30003 11.6 7.40003 11.6 7.40003 11.6C7.80003 11.6 8.20003 11.9 8.20003 12.3C8.20003 12.7 7.80003 13 7.40003 13C7.00003 13 6.60003 12.7 6.60003 12.3C6.60003 12.2 6.60003 12.1 6.70003 12C4.60003 9.3 6.20003 5.9 6.20003 5.9C5.60003 5.6 5.80003 4.4 6.60003 3.3C7.40003 2.2 8.70003 1.5 9.30003 1.9Z" fill="url(#paint5_radial_1630_39958)"/>
<path d="M15.2 1.8C14.6 2.1 14.8 3.3 15.6 4.4C16.3 5.3 17.1 5.8 17.8 5.8C17.8 5.8 19.3 8.8 17.5 11.6C17.4 11.6 17.4 11.5 17.3 11.5C17.2 11.5 17.1 11.5 17.1 11.5C16.7 11.5 16.3 11.8 16.3 12.2C16.3 12.6 16.7 12.9 17.1 12.9C17.5 12.9 17.9 12.6 17.9 12.2C17.9 12.1 17.9 12 17.8 11.9C19.9 9.2 18.3 5.8 18.3 5.8C18.9 5.5 18.7 4.3 17.9 3.2C17.1 2.1 15.8 1.5 15.2 1.8Z" fill="url(#paint6_radial_1630_39958)"/>
<path d="M17.5 22.5C19.7091 22.5 21.5 20.53 21.5 18.1C21.5 15.6699 19.7091 13.7 17.5 13.7C15.2909 13.7 13.5 15.6699 13.5 18.1C13.5 20.53 15.2909 22.5 17.5 22.5Z" fill="url(#paint7_radial_1630_39958)"/>
<path d="M17.5 22C19.4882 22 21.1 20.2539 21.1 18.1C21.1 15.9461 19.4882 14.2 17.5 14.2C15.5118 14.2 13.9 15.9461 13.9 18.1C13.9 20.2539 15.5118 22 17.5 22Z" fill="url(#paint8_radial_1630_39958)"/>
<path d="M17.7 17.9C17.8 19.3 17.1 20.5 16.2 20.5C15.3 20.5 14.5 19.4 14.4 18C14.3 16.6 15 15.4 15.9 15.4C16.8 15.4 17.7 16.5 17.7 17.9Z" fill="url(#paint9_linear_1630_39958)"/>
<path d="M15.2 17.3C15.4762 17.3 15.7 17.0761 15.7 16.8C15.7 16.5239 15.4762 16.3 15.2 16.3C14.9239 16.3 14.7 16.5239 14.7 16.8C14.7 17.0761 14.9239 17.3 15.2 17.3Z" fill="white"/>
<path d="M6.80005 22.7C9.00919 22.7 10.8 20.7301 10.8 18.3C10.8 15.8699 9.00919 13.9 6.80005 13.9C4.59091 13.9 2.80005 15.8699 2.80005 18.3C2.80005 20.7301 4.59091 22.7 6.80005 22.7Z" fill="url(#paint10_radial_1630_39958)"/>
<path d="M6.80007 22.2C8.7883 22.2 10.4001 20.4539 10.4001 18.3C10.4001 16.1461 8.7883 14.4 6.80007 14.4C4.81185 14.4 3.20007 16.1461 3.20007 18.3C3.20007 20.4539 4.81185 22.2 6.80007 22.2Z" fill="url(#paint11_radial_1630_39958)"/>
<path d="M6.60004 18.1C6.50004 19.5 7.20004 20.7 8.10004 20.7C9.00004 20.7 9.80005 19.6 9.90005 18.2C10 16.8 9.30005 15.6 8.40005 15.6C7.50005 15.6 6.70004 16.7 6.60004 18.1Z" fill="url(#paint12_linear_1630_39958)"/>
<path d="M9.10004 17.4C9.37618 17.4 9.60004 17.1761 9.60004 16.9C9.60004 16.6239 9.37618 16.4 9.10004 16.4C8.82389 16.4 8.60004 16.6239 8.60004 16.9C8.60004 17.1761 8.82389 17.4 9.10004 17.4Z" fill="white"/>
<path d="M28.7 16.2C27.9 16.2 27.3 16 26.8 15.5C26.3 15.1 26.1 14.5 26.1 13.7C26.1 13 26.3 12.4 26.8 12C27.3 11.6 28 11.3 28.9 11.3L31 11.1V11C31 10.7 30.9 10.5 30.8 10.4C30.7 10.2 30.6 10.1 30.4 10C30.2 9.9 30 9.9 29.7 9.9C29.2 9.9 28.8 10 28.6 10.2C28.4 10.3 28.3 10.5 28.2 10.7C28.2 10.8 28 10.9 27.9 10.9H26.6C26.4 10.9 26.3 10.7 26.3 10.6C26.3 10.2 26.5 9.8 26.7 9.4C27 9 27.4 8.6 28 8.4C28.5 8.2 29.2 8 29.9 8C30.6 8 31.3 8.1 31.8 8.4C32.3 8.7 32.7 9.1 33 9.6C33.3 10.1 33.4 10.7 33.4 11.5V15.6C33.4 15.8 33.3 15.9 33.1 15.9H31.6C31.4 15.9 31.3 15.8 31.3 15.6C31.3 15.4 31 15.2 30.8 15.4C30.7 15.5 30.5 15.6 30.3 15.7C29.8 16.1 29.3 16.2 28.7 16.2ZM29.5 14.4C29.9 14.4 30.3 14.3 30.6 14.1C30.9 13.9 31 13.6 31 13.1V13C31 12.8 30.8 12.7 30.7 12.7L29.8 12.8C29.3 12.8 28.9 12.9 28.7 13.1C28.5 13.2 28.4 13.4 28.4 13.7C28.4 14 28.5 14.2 28.7 14.3C28.9 14.4 29.2 14.4 29.5 14.4Z" fill="white"/>
<path d="M49 12.1C49 11.3 49.2 10.6 49.5 10C49.9 9.4 50.4 8.9 51 8.6C51.6 8.3 52.4 8.1 53.2 8.1C54 8.1 54.7 8.3 55.4 8.6C56 8.9 56.5 9.4 56.9 10C57.3 10.6 57.4 11.3 57.4 12.1C57.4 12.9 57.2 13.6 56.9 14.2C56.5 14.8 56 15.3 55.4 15.6C54.8 15.9 54 16.1 53.2 16.1C52.4 16.1 51.7 15.9 51 15.6C50.4 15.3 49.9 14.8 49.5 14.2C49.2 13.7 49 12.9 49 12.1ZM51.3 12.1C51.3 12.5 51.4 12.8 51.5 13.1C51.7 13.4 51.9 13.6 52.1 13.8C52.4 14 52.7 14 53.1 14C53.5 14 53.8 13.9 54.1 13.8C54.4 13.6 54.6 13.4 54.7 13.1C54.9 12.8 54.9 12.5 54.9 12.1C54.9 11.7 54.8 11.4 54.7 11.1C54.5 10.8 54.3 10.6 54.1 10.4C53.8 10.2 53.5 10.2 53.1 10.2C52.7 10.2 52.4 10.3 52.1 10.4C51.8 10.6 51.6 10.8 51.5 11.1C51.4 11.4 51.3 11.7 51.3 12.1Z" fill="white"/>
<path d="M49 8.7V10.3C49 10.5 48.9 10.6 48.7 10.6H47.4C47.2 10.6 47.1 10.7 47.1 10.9V15.7C47.1 15.9 47 16 46.8 16H44.9C44.7 16 44.6 15.9 44.6 15.7V10.9C44.6 10.7 44.5 10.6 44.3 10.6H42.9C42.7 10.6 42.6 10.5 42.6 10.3V8.7C42.6 8.5 42.7 8.4 42.9 8.4H48.8C48.8 8.3 49 8.5 49 8.7Z" fill="white"/>
<path d="M41.9 8.6V15.8C41.9 15.9 41.8 16 41.7 16H38C37.9 16 37.8 15.9 37.8 15.8L37.2 11.1C37.2 11 37.1 10.9 37 10.9H36.7C36.6 10.9 36.5 11 36.5 11.1V15.7C36.5 15.8 36.4 15.9 36.3 15.9H34.5C34.4 15.9 34.3 15.8 34.3 15.7V8.5C34.3 8.4 34.4 8.3 34.5 8.3H38.3C38.4 8.3 38.5 8.4 38.5 8.5L39.3 13.2C39.3 13.3 39.4 13.4 39.5 13.4C39.6 13.4 39.7 13.3 39.7 13.2V8.6C39.7 8.5 39.8 8.4 39.9 8.4H41.7C41.8 8.3 41.9 8.4 41.9 8.6Z" fill="white"/>
<path d="M33.4999 21.6C33.4999 20.8 33.6999 20.1 33.9999 19.5C34.3999 18.9 34.8999 18.4 35.4999 18.1C36.0999 17.8 36.8999 17.6 37.6999 17.6C38.4999 17.6 39.1999 17.8 39.8999 18.1C40.4999 18.4 40.9999 18.9 41.3999 19.5C41.7999 20.1 41.8999 20.8 41.8999 21.6C41.8999 22.4 41.6999 23.1 41.3999 23.7C40.9999 24.3 40.4999 24.8 39.8999 25.1C39.2999 25.4 38.4999 25.6 37.6999 25.6C36.8999 25.6 36.1999 25.4 35.4999 25.1C34.8999 24.8 34.3999 24.3 33.9999 23.7C33.6999 23.1 33.4999 22.4 33.4999 21.6ZM35.8999 21.6C35.8999 22 35.9999 22.3 36.0999 22.6C36.2999 22.9 36.4999 23.1 36.6999 23.3C36.9999 23.5 37.2999 23.5 37.6999 23.5C38.0999 23.5 38.3999 23.4 38.6999 23.3C38.9999 23.1 39.1999 22.9 39.2999 22.6C39.4999 22.3 39.4999 22 39.4999 21.6C39.4999 21.2 39.3999 20.9 39.2999 20.6C39.0999 20.3 38.8999 20.1 38.6999 19.9C38.3999 19.7 38.0999 19.7 37.6999 19.7C37.2999 19.7 36.9999 19.8 36.6999 19.9C36.3999 20.1 36.1999 20.3 36.0999 20.6C35.9999 20.8 35.8999 21.2 35.8999 21.6Z" fill="white"/>
<path d="M51.4 23H52.6C52.8 23 53 23.1 53.1 23.3C53.2 23.4 53.2 23.5 53.3 23.6C53.5 23.8 53.8 23.8 54.1 23.8C54.4 23.8 54.7 23.7 54.9 23.6C55.1 23.5 55.2 23.3 55.2 23.1C55.2 23 55.2 22.9 55.1 22.8C55 22.7 54.8 22.6 54.5 22.5L53.1 22.2C52.4 22 51.9 21.8 51.5 21.5C51.2 21.2 51 20.7 51 20C51 19.5 51.1 19 51.4 18.6C51.7 18.2 52.1 17.9 52.5 17.7C53 17.5 53.5 17.4 54.1 17.4C54.7 17.4 55.2 17.5 55.7 17.7C56.2 17.9 56.5 18.2 56.8 18.6C56.9 18.8 57 19.1 57.1 19.3C57.2 19.6 56.9 19.9 56.6 19.9H55.4C55.2 19.9 55 19.8 54.9 19.5C54.9 19.4 54.8 19.3 54.7 19.2C54.5 19 54.3 19 54 19C53.8 19 53.5 19.1 53.4 19.2C53.2 19.3 53.1 19.5 53.1 19.7C53.1 20 53.4 20.3 53.9 20.4L55.3 20.7C55.9 20.8 56.4 21.1 56.7 21.4C57 21.7 57.2 22.2 57.2 22.8C57.2 23.3 57.1 23.8 56.8 24.2C56.5 24.6 56.1 24.9 55.6 25.1C55.1 25.3 54.5 25.4 53.8 25.4C52.8 25.4 52 25.2 51.4 24.7C51 24.4 50.7 23.9 50.6 23.5C50.8 23.3 51.1 23 51.4 23Z" fill="white"/>
<path d="M49.5999 17.8H47.9999C47.6999 17.8 47.4999 18 47.4999 18.3V25C47.4999 25.3 47.6999 25.5 47.9999 25.5H49.5999C49.8999 25.5 50.0999 25.3 50.0999 25V18.3C50.0999 18 49.8999 17.8 49.5999 17.8Z" fill="white"/>
<path d="M33 20.8C33 20.2 32.8999 19.7 32.5999 19.2C32.2999 18.7 31.9 18.4 31.5 18.1C31.2 17.9 30.8 17.8 30.5 17.8C30.3 17.8 30.1 17.8 29.9 17.8H26.5C26.3 17.8 26.2 17.9 26.2 18.1V25.1C26.2 25.3 26.3 25.4 26.5 25.4H28.2999C28.4999 25.4 28.5999 25.3 28.5999 25.1V23.9H29.7999C29.9999 23.9 30.2 23.9 30.4 23.9C30.8 23.8 31.1 23.7 31.4 23.6C31.9 23.3 32.3 23 32.5 22.5C32.8 22 33 21.5 33 21V20.8C33 20.9 33 20.9 33 20.8ZM30.5999 20.8C30.5999 21 30.6 21.1 30.5 21.3C30.4 21.4 30.3 21.5 30.2 21.6C30.1 21.7 29.8999 21.7 29.7999 21.7H28.5999V20H29.7999C29.9999 20 30.1 20 30.2 20.1C30.3 20.2 30.4 20.3 30.5 20.4C30.6 20.5 30.5999 20.7 30.5999 20.8Z" fill="white"/>
<path d="M46.8999 23.2V25.1C46.8999 25.3 46.7999 25.4 46.5999 25.4H42.5999C42.3999 25.4 42.2999 25.3 42.2999 25.1V18C42.2999 17.8 42.3999 17.7 42.5999 17.7H44.4999C44.6999 17.7 44.7999 17.8 44.7999 18V22.7C44.7999 22.9 44.8999 23 45.0999 23H46.5999C46.7999 22.9 46.8999 23.1 46.8999 23.2Z" fill="white"/>
<defs>
<linearGradient id="paint0_linear_1630_39958" x1="12.1891" y1="11.9418" x2="12.1891" y2="8.2862" gradientUnits="userSpaceOnUse">
<stop offset="3.22782e-07" stop-color="#EBECF2"/>
<stop offset="0.4416" stop-color="#E9ECF2"/>
<stop offset="0.6793" stop-color="#E1EAF0"/>
<stop offset="0.8683" stop-color="#D3E7ED"/>
<stop offset="0.8908" stop-color="#D1E7ED"/>
</linearGradient>
<linearGradient id="paint1_linear_1630_39958" x1="12.3437" y1="19.5866" x2="12.3437" y2="25.6258" gradientUnits="userSpaceOnUse">
<stop offset="3.22782e-07" stop-color="#EBECF2"/>
<stop offset="0.4416" stop-color="#E9ECF2"/>
<stop offset="0.6793" stop-color="#E1EAF0"/>
<stop offset="0.8683" stop-color="#D3E7ED"/>
<stop offset="0.8908" stop-color="#D1E7ED"/>
</linearGradient>
<linearGradient id="paint2_linear_1630_39958" x1="2.33292" y1="14.2697" x2="2.33292" y2="21.3191" gradientUnits="userSpaceOnUse">
<stop offset="1.27157e-07" stop-color="#6E94AE"/>
<stop offset="0.2434" stop-color="#50718B"/>
<stop offset="0.5351" stop-color="#324D67"/>
<stop offset="0.7732" stop-color="#1F3751"/>
<stop offset="0.9262" stop-color="#182F49"/>
</linearGradient>
<linearGradient id="paint3_linear_1630_39958" x1="22.0008" y1="14.2852" x2="22.0008" y2="21.3172" gradientUnits="userSpaceOnUse">
<stop offset="1.27157e-07" stop-color="#6E94AE"/>
<stop offset="0.2434" stop-color="#50718B"/>
<stop offset="0.5351" stop-color="#324D67"/>
<stop offset="0.7732" stop-color="#1F3751"/>
<stop offset="0.9262" stop-color="#182F49"/>
</linearGradient>
<radialGradient id="paint4_radial_1630_39958" cx="0" cy="0" r="1" gradientUnits="userSpaceOnUse" gradientTransform="translate(12.1735 15.1346) scale(8.0425)">
<stop offset="1.27157e-07" stop-color="#6E94AE"/>
<stop offset="0.1797" stop-color="#6A8FA9"/>
<stop offset="0.3881" stop-color="#5E819B"/>
<stop offset="0.6106" stop-color="#4A6A84"/>
<stop offset="0.8416" stop-color="#2F4A64"/>
<stop offset="1" stop-color="#182F49"/>
</radialGradient>
<radialGradient id="paint5_radial_1630_39958" cx="0" cy="0" r="1" gradientUnits="userSpaceOnUse" gradientTransform="translate(7.68283 7.33713) scale(4.1746)">
<stop stop-color="#007FA6"/>
<stop offset="0.2156" stop-color="#047297"/>
<stop offset="0.6258" stop-color="#0E5271"/>
<stop offset="1" stop-color="#182F49"/>
</radialGradient>
<radialGradient id="paint6_radial_1630_39958" cx="0" cy="0" r="1" gradientUnits="userSpaceOnUse" gradientTransform="translate(16.7658 7.29472) scale(4.1746 4.59206)">
<stop stop-color="#007FA6"/>
<stop offset="0.2156" stop-color="#047297"/>
<stop offset="0.6258" stop-color="#0E5271"/>
<stop offset="1" stop-color="#182F49"/>
</radialGradient>
<radialGradient id="paint7_radial_1630_39958" cx="0" cy="0" r="1" gradientUnits="userSpaceOnUse" gradientTransform="translate(17.5169 18.1404) scale(4.1948)">
<stop offset="1.27157e-07" stop-color="#6E94AE"/>
<stop offset="0.1797" stop-color="#6A8FA9"/>
<stop offset="0.3881" stop-color="#5E819B"/>
<stop offset="0.6106" stop-color="#4A6A84"/>
<stop offset="0.8416" stop-color="#2F4A64"/>
<stop offset="1" stop-color="#182F49"/>
</radialGradient>
<radialGradient id="paint8_radial_1630_39958" cx="0" cy="0" r="1" gradientUnits="userSpaceOnUse" gradientTransform="translate(17.544 18.1404) scale(3.706 3.706)">
<stop offset="0.4431" stop-color="#37C4EA"/>
<stop offset="0.7361" stop-color="#1BA0C6"/>
<stop offset="1" stop-color="#007CA2"/>
</radialGradient>
<linearGradient id="paint9_linear_1630_39958" x1="16.0615" y1="20.5277" x2="16.0615" y2="15.4679" gradientUnits="userSpaceOnUse">
<stop stop-color="#007FA6"/>
<stop offset="0.3315" stop-color="#07678B"/>
<stop offset="1" stop-color="#182F49"/>
</linearGradient>
<radialGradient id="paint10_radial_1630_39958" cx="0" cy="0" r="1" gradientUnits="userSpaceOnUse" gradientTransform="translate(6.83375 18.2837) scale(4.1948)">
<stop offset="1.27157e-07" stop-color="#6E94AE"/>
<stop offset="0.1797" stop-color="#6A8FA9"/>
<stop offset="0.3881" stop-color="#5E819B"/>
<stop offset="0.6106" stop-color="#4A6A84"/>
<stop offset="0.8416" stop-color="#2F4A64"/>
<stop offset="1" stop-color="#182F49"/>
</radialGradient>
<radialGradient id="paint11_radial_1630_39958" cx="0" cy="0" r="1" gradientUnits="userSpaceOnUse" gradientTransform="translate(6.80677 18.2837) scale(3.706)">
<stop offset="0.4431" stop-color="#37C4EA"/>
<stop offset="0.7361" stop-color="#1BA0C6"/>
<stop offset="1" stop-color="#007CA2"/>
</radialGradient>
<linearGradient id="paint12_linear_1630_39958" x1="8.28914" y1="20.671" x2="8.28914" y2="15.6112" gradientUnits="userSpaceOnUse">
<stop stop-color="#007FA6"/>
<stop offset="0.3315" stop-color="#07678B"/>
<stop offset="1" stop-color="#182F49"/>
</linearGradient>
</defs>
</svg>
